<svg t="1686134192019" class="icon" viewBox="0 0 1024 1024" version="1.1" xmlns="http://www.w3.org/2000/svg"
  p-id="2394">
  <path
    d="M927.623529 144.564706h-512v-36.141177c0-30.117647-24.094118-60.235294-60.235294-60.235294h-132.517647c-30.117647 0-60.235294 24.094118-60.235294 60.235294v36.141177h-66.258823c-36.141176 0-66.258824 30.117647-66.258824 66.258823v192.752942c0 36.141176 30.117647 66.258824 66.258824 66.258823h36.141176v439.717647h-60.235294v60.235294h891.482353v-60.235294h-66.258824v-439.717647h30.117647c36.141176 0 66.258824-30.117647 66.258824-66.258823v-192.752942c0-36.141176-30.117647-66.258824-66.258824-66.258823z m-704.752941-36.141177h132.517647v132.517647h-132.517647v-132.517647z m-30.117647 481.882353h295.152941v325.270589h-295.152941v-325.270589z m355.388235 325.270589v-325.270589h289.129412v325.270589h-289.129412z m289.129412-385.505883h-644.517647v-54.211764h644.517647v54.211764z m96.376471-120.470588c0 6.023529-6.023529 6.023529-6.02353 6.023529H96.376471s-6.023529 0-6.02353-6.023529v-192.752941s0-6.023529 6.02353-6.02353h66.258823v36.141177c0 30.117647 24.094118 60.235294 60.235294 60.235294h132.517647c30.117647 0 60.235294-24.094118 60.235294-60.235294v-36.141177h512s6.023529 0 6.02353 6.02353v192.752941z"
    p-id="2395"></path>
</svg>